<?xml version="1.0" encoding="UTF-8"?>
<svg width="20px" height="20px" viewBox="0 0 20 20" version="1.1" xmlns="http://www.w3.org/2000/svg" xmlns:xlink="http://www.w3.org/1999/xlink">
    <!-- Generator: Sketch 40 (33762) - http://www.bohemiancoding.com/sketch -->
    <title>Shape</title>
    <desc>Created with Sketch.</desc>
    <defs></defs>
    <g id="Home-View" stroke="none" stroke-width="1" fill="none" fill-rule="evenodd">
        <g id="Home-View-(Oct-12)" transform="translate(-330.000000, -979.000000)" fill="#D8D8D8">
            <path d="M339.99,979 C334.47,979 330,983.48 330,989 C330,994.52 334.47,999 339.99,999 C345.52,999 350,994.52 350,989 C350,983.48 345.52,979 339.99,979 L339.99,979 Z M340,997 C335.58,997 332,993.42 332,989 C332,984.58 335.58,981 340,981 C344.42,981 348,984.58 348,989 C348,993.42 344.42,997 340,997 L340,997 Z M343.5,988 C344.33,988 345,987.33 345,986.5 C345,985.67 344.33,985 343.5,985 C342.67,985 342,985.67 342,986.5 C342,987.33 342.67,988 343.5,988 L343.5,988 Z M336.5,988 C337.33,988 338,987.33 338,986.5 C338,985.67 337.33,985 336.5,985 C335.67,985 335,985.67 335,986.5 C335,987.33 335.67,988 336.5,988 L336.5,988 Z M340,994.5 C342.33,994.5 344.31,993.04 345.11,991 L334.89,991 C335.69,993.04 337.67,994.5 340,994.5 L340,994.5 Z" id="Shape"></path>
        </g>
    </g>
</svg>