<?xml version="1.0" encoding="UTF-8"?>
<svg width="12px" height="22px" viewBox="0 0 12 22" version="1.1" xmlns="http://www.w3.org/2000/svg" xmlns:xlink="http://www.w3.org/1999/xlink">
    <!-- Generator: Sketch 40 (33762) - http://www.bohemiancoding.com/sketch -->
    <title>Shape</title>
    <desc>Created with Sketch.</desc>
    <defs></defs>
    <g id="Home-View" stroke="none" stroke-width="1" fill="none" fill-rule="evenodd">
        <g id="Home-View-(Oct-12)" transform="translate(-1320.000000, -978.000000)" stroke="#D8D8D8" stroke-width="0.1" fill="#D8D8D8">
            <path d="M1329.63636,983.545455 L1329.63636,994 C1329.63636,996.009091 1328.00909,997.636364 1326,997.636364 C1323.99091,997.636364 1322.36364,996.009091 1322.36364,994 L1322.36364,982.636364 C1322.36364,981.381818 1323.38182,980.363636 1324.63636,980.363636 C1325.89091,980.363636 1326.90909,981.381818 1326.90909,982.636364 L1326.90909,992.181818 C1326.90909,992.681818 1326.5,993.090909 1326,993.090909 C1325.5,993.090909 1325.09091,992.681818 1325.09091,992.181818 L1325.09091,983.545455 L1323.72727,983.545455 L1323.72727,992.181818 C1323.72727,993.436364 1324.74545,994.454545 1326,994.454545 C1327.25455,994.454545 1328.27273,993.436364 1328.27273,992.181818 L1328.27273,982.636364 C1328.27273,980.627273 1326.64545,979 1324.63636,979 C1322.62727,979 1321,980.627273 1321,982.636364 L1321,994 C1321,996.763636 1323.23636,999 1326,999 C1328.76364,999 1331,996.763636 1331,994 L1331,983.545455 L1329.63636,983.545455 L1329.63636,983.545455 Z" id="Shape"></path>
        </g>
    </g>
</svg>