<?xml version="1.0" encoding="UTF-8"?>
<svg width="17px" height="18px" viewBox="0 0 17 18" version="1.1" xmlns="http://www.w3.org/2000/svg" xmlns:xlink="http://www.w3.org/1999/xlink">
    <!-- Generator: Sketch 40 (33762) - http://www.bohemiancoding.com/sketch -->
    <title>Fill 155</title>
    <desc>Created with Sketch.</desc>
    <defs></defs>
    <g id="Home-View" stroke="none" stroke-width="1" fill="none" fill-rule="evenodd">
        <g id="File-tab" transform="translate(-1324.000000, -90.000000)" fill="#4EA6E5">
            <path d="M1332.1,104.4 L1336.6,104.4 L1336.6,99.9 L1332.1,99.9 L1332.1,104.4 Z M1335.7,90 L1335.7,91.8 L1328.5,91.8 L1328.5,90 L1326.7,90 L1326.7,91.8 L1325.8,91.8 C1324.801,91.8 1324.009,92.61 1324.009,93.6 L1324,106.2 C1324,107.19 1324.801,108 1325.8,108 L1338.4,108 C1339.39,108 1340.2,107.19 1340.2,106.2 L1340.2,93.6 C1340.2,92.61 1339.39,91.8 1338.4,91.8 L1337.5,91.8 L1337.5,90 L1335.7,90 L1335.7,90 Z M1325.8,96.3 L1338.4,96.3 L1338.4,106.2 L1325.8,106.2 L1325.8,96.3 Z" id="Fill-155"></path>
        </g>
    </g>
</svg>