<?xml version="1.0" encoding="UTF-8"?>
<svg width="16px" height="15px" viewBox="0 0 16 15" version="1.1" xmlns="http://www.w3.org/2000/svg" xmlns:xlink="http://www.w3.org/1999/xlink">
    <!-- Generator: Sketch 40 (33762) - http://www.bohemiancoding.com/sketch -->
    <title>Search 2</title>
    <desc>Created with Sketch.</desc>
    <defs></defs>
    <g id="Home-View" stroke="none" stroke-width="1" fill="none" fill-rule="evenodd">
        <g id="Home-View-New" transform="translate(-30.000000, -80.000000)" stroke="#A2A2A2" fill="#A2A2A2">
            <g id="SEARCH" transform="translate(18.000000, 68.000000)">
                <path d="M27,26.2142319 L22.8481534,22.0588235 C23.6270407,21.1025743 24.0952607,19.8831066 24.0952607,18.5531316 C24.0952607,15.486137 21.6115866,13 18.5476304,13 C15.4842289,13 13,15.486137 13,18.5531316 C13,21.6195708 15.4842289,24.1057078 18.5476304,24.1057078 C19.882945,24.1057078 21.1078618,23.6331363 22.0653828,22.8462576 L26.2150103,27 L27,26.2142319 L27,26.2142319 Z M18.5476304,22.9945262 C16.0966873,22.9945262 14.1095261,21.0053945 14.1095261,18.5520209 C14.1095261,16.0980921 16.0961325,14.1089604 18.5476304,14.1089604 C20.9985735,14.1089604 22.9857347,16.0980921 22.9857347,18.5520209 C22.9862894,21.0059498 20.9991282,22.9945262 18.5476304,22.9945262 L18.5476304,22.9945262 Z" id="Search-2"></path>
            </g>
        </g>
    </g>
</svg>