<?xml version="1.0" encoding="UTF-8" standalone="no"?>
<svg width="20px" height="24px" viewBox="0 0 20 24" version="1.1" xmlns="http://www.w3.org/2000/svg" xmlns:xlink="http://www.w3.org/1999/xlink">
    <!-- Generator: Sketch 39 (31667) - http://www.bohemiancoding.com/sketch -->
    <title>Fill 159</title>
    <desc>Created with Sketch.</desc>
    <defs></defs>
    <g id="Viewing-an-Event" stroke="none" stroke-width="1" fill="none" fill-rule="evenodd">
        <g transform="translate(-10.000000, -333.000000)" id="Chat-Description" fill="#9B9B9B">
            <g transform="translate(0.000000, 299.000000)">
                <path d="M22,34 L12.4,34 C11.08,34 10.012,35.08 10.012,36.4 L10,55.6 C10,56.92 11.068,58 12.388,58 L26.8,58 C28.12,58 29.2,56.92 29.2,55.6 L29.2,41.2 L22,34 L22,34 Z M14.8,50.8 L24.4,50.8 L24.4,53.2 L14.8,53.2 L14.8,50.8 Z M14.8,46 L24.4,46 L24.4,48.4 L14.8,48.4 L14.8,46 Z M20.8,42.4 L20.8,35.8 L27.4,42.4 L20.8,42.4 L20.8,42.4 Z" id="Fill-159"></path>
            </g>
        </g>
    </g>
</svg>