<?xml version="1.0" encoding="UTF-8"?>
<svg width="14px" height="14px" viewBox="0 0 14 14" version="1.1" xmlns="http://www.w3.org/2000/svg" xmlns:xlink="http://www.w3.org/1999/xlink">
    <!-- Generator: sketchtool 41.2 (35397) - http://www.bohemiancoding.com/sketch -->
    <title>F634354F-FA38-4383-8723-4D87CBC76FE3</title>
    <desc>Created with sketchtool.</desc>
    <defs></defs>
    <g id="Bots-Questions" stroke="none" stroke-width="1" fill="none" fill-rule="evenodd">
        <g id="Pop-up-Questions-(Faculty-View)" transform="translate(-1171.000000, -83.000000)" fill="#FFFFFF">
            <path d="M1185,96.2142319 L1180.84815,92.0588235 C1181.62704,91.1025743 1182.09526,89.8831066 1182.09526,88.5531316 C1182.09526,85.486137 1179.61159,83 1176.54763,83 C1173.48423,83 1171,85.486137 1171,88.5531316 C1171,91.6195708 1173.48423,94.1057078 1176.54763,94.1057078 C1177.88294,94.1057078 1179.10786,93.6331363 1180.06538,92.8462576 L1184.21501,97 L1185,96.2142319 L1185,96.2142319 Z M1176.54763,92.9945262 C1174.09669,92.9945262 1172.10953,91.0053945 1172.10953,88.5520209 C1172.10953,86.0980921 1174.09613,84.1089604 1176.54763,84.1089604 C1178.99857,84.1089604 1180.98573,86.0980921 1180.98573,88.5520209 C1180.98629,91.0059498 1178.99913,92.9945262 1176.54763,92.9945262 L1176.54763,92.9945262 Z" id="Search-2"></path>
        </g>
    </g>
</svg>