<?xml version="1.0" encoding="UTF-8"?>
<svg width="18px" height="22px" viewBox="0 0 18 22" version="1.1" xmlns="http://www.w3.org/2000/svg" xmlns:xlink="http://www.w3.org/1999/xlink">
    <!-- Generator: Sketch 45.1 (43504) - http://www.bohemiancoding.com/sketch -->
    <title>Group</title>
    <desc>Created with Sketch.</desc>
    <defs></defs>
    <g id="Create-Subchat" stroke="none" stroke-width="1" fill="none" fill-rule="evenodd">
        <g id="Account-Settings" transform="translate(-29.000000, -555.000000)">
            <g id="Group" transform="translate(30.000000, 556.000000)">
                <path d="M14.2099998,6.66666667 L13.1949998,6.66666667 L13.1949998,4.76190476 C13.1949998,2.13333333 10.9213998,0 8.11999989,0 C5.31859993,0 3.04499996,2.13333333 3.04499996,4.76190476 L3.04499996,6.66666667 L2.02999997,6.66666667 C0.913499987,6.66666667 0,7.52380952 0,8.57142857 L0,18.0952381 C0,19.1428571 0.913499987,20 2.02999997,20 L14.2099998,20 C15.3264998,20 16.2399998,19.1428571 16.2399998,18.0952381 L16.2399998,8.57142857 C16.2399998,7.52380952 15.3264998,6.66666667 14.2099998,6.66666667 L14.2099998,6.66666667 Z M11.2664998,6.66666667 L4.97349993,6.66666667 L4.97349993,4.76190476 C4.97349993,3.13333333 6.38434991,1.80952381 8.11999989,1.80952381 C9.85564986,1.80952381 11.2664998,3.13333333 11.2664998,4.76190476 L11.2664998,6.66666667 L11.2664998,6.66666667 Z" id="Fill-134" stroke="#29ACBE"></path>
                <path d="M8.2,10.6 L8.2,9 L6.2,11 L8.2,13 L8.2,11.4 C9.524,11.4 10.6,12.476 10.6,13.8 C10.6,15.1238 9.524,16.2 8.2,16.2 C6.876,16.2 5.8,15.1238 5.8,13.8 L5,13.8 C5,15.5678 6.432,17 8.2,17 C9.968,17 11.4,15.5678 11.4,13.8 C11.4,12.032 9.968,10.6 8.2,10.6" id="Fill-103" fill="#29ACBE"></path>
            </g>
        </g>
    </g>
</svg>