<?xml version="1.0" encoding="UTF-8"?>
<svg width="200px" height="200px" viewBox="0 0 200 200" version="1.1" xmlns="http://www.w3.org/2000/svg" xmlns:xlink="http://www.w3.org/1999/xlink">
    <!-- Generator: Sketch 40 (33762) - http://www.bohemiancoding.com/sketch -->
    <title>Group 3</title>
    <desc>Created with Sketch.</desc>
    <defs></defs>
    <g id="Create-Subchat" stroke="none" stroke-width="1" fill="none" fill-rule="evenodd">
        <g id="Create-class-step-1" transform="translate(-60.000000, -120.000000)">
            <g id="Group-3" transform="translate(60.000000, 120.000000)">
                <path d="M100,200 C155.228475,200 200,155.228475 200,100 C200,44.771525 155.228475,0 100,0 C44.771525,0 0,44.771525 0,100 C0,155.228475 44.771525,200 100,200 Z" id="Oval-80" fill="#9B9B9B"></path>
                <g id="Group-9" transform="translate(29.000000, 50.000000)" fill="#FFFFFF">
                    <text id="ADD-CLASS-ICON" font-family="HelveticaNeue-Medium, Helvetica Neue" font-size="18" font-weight="400">
                        <tspan x="20.168" y="71.6666667">ADD CLASS </tspan>
                        <tspan x="48.662" y="93.6666667">ICON</tspan>
                    </text>
                    <path d="M56.0099182,3.71399994 C53.7953015,3.71399994 52,5.50570717 52,7.7210924 L52,29.418907 C52,31.631963 53.7913394,33.4259995 56.0099182,33.4259995 L85.1300812,33.4259995 C87.3446979,33.4259995 89.1399994,31.6342922 89.1399994,29.418907 L89.1399994,7.7210924 C89.1399994,5.50803634 87.34866,3.71399994 85.1300812,3.71399994 L56.0099182,3.71399994 Z M70.5699997,27.8549995 C75.6979635,27.8549995 79.8549995,23.6979635 79.8549995,18.5699997 C79.8549995,13.4420359 75.6979635,9.28499985 70.5699997,9.28499985 C65.4420359,9.28499985 61.2849998,13.4420359 61.2849998,18.5699997 C61.2849998,23.6979635 65.4420359,27.8549995 70.5699997,27.8549995 Z M70.5699997,24.1409996 C73.646778,24.1409996 76.1409996,21.646778 76.1409996,18.5699997 C76.1409996,15.4932214 73.646778,12.9989998 70.5699997,12.9989998 C67.4932214,12.9989998 64.9989998,15.4932214 64.9989998,18.5699997 C64.9989998,21.646778 67.4932214,24.1409996 70.5699997,24.1409996 Z M64.9989998,0 L61.2849998,3.71399994 L79.8549995,3.71399994 L76.1409996,0 L64.9989998,0 Z" id="Rectangle-245"></path>
                </g>
            </g>
        </g>
    </g>
</svg>