<?xml version="1.0" encoding="UTF-8"?>
<svg width="36px" height="36px" viewBox="0 0 36 36" version="1.1" xmlns="http://www.w3.org/2000/svg" xmlns:xlink="http://www.w3.org/1999/xlink">
    <!-- Generator: Sketch 42 (36781) - http://www.bohemiancoding.com/sketch -->
    <title>Group 11</title>
    <desc>Created with Sketch.</desc>
    <defs></defs>
    <g id="Create-Subchat" stroke="none" stroke-width="1" fill="none" fill-rule="evenodd">
        <g id="Settings-Tab-(Chat)" transform="translate(-1383.000000, -81.000000)">
            <g id="Group-11" transform="translate(1383.000000, 81.000000)">
                <rect id="Rectangle-2" fill="#4EA6E5" x="0" y="0" width="36" height="36" rx="6"></rect>
                <path d="M12.6,21.33 L10.917679,23.012321 C10.5296001,23.4003999 10.5384375,24.0384375 10.9158076,24.4158076 L11.5841924,25.0841924 C11.9712378,25.4712378 12.5967971,25.4732029 12.987679,25.082321 L14.67,23.4 C15.195,23.64 15.81,23.805 16.5,23.895 L16.5,24 L16.5,26.0010434 C16.5,26.5527519 16.9437989,27 17.5024923,27 L18.3333333,27 L18.4955533,27 C19.0502939,27 19.5,26.5573397 19.5,26.0010434 L19.5,24 L19.5,23.895 C20.19,23.805 20.805,23.64 21.33,23.4 L23.012321,25.082321 C23.4003999,25.4703999 24.0384375,25.4615625 24.4158076,25.0841924 L25.0841924,24.4158076 C25.4712378,24.0287622 25.4712419,23.4032029 25.0779016,23.012321 L23.385,21.33 C23.64,20.805 23.805,20.19 23.895,19.5 L25.5,19.5 L26.0078316,19.5 C26.5557911,19.5 27,19.0573397 27,18.5010434 L27,17.4989566 C27,16.9472481 26.5580635,16.5 26.0078316,16.5 L25.5,16.5 L23.895,16.5 C23.805,15.81 23.64,15.195 23.385,14.67 L25.0779016,12.987679 C25.4684213,12.5996001 25.4615625,11.9615625 25.0841924,11.5841924 L24.4158076,10.9158076 C24.0287622,10.5287622 23.4032029,10.5267971 23.012321,10.917679 L21.33,12.6 C20.805,12.36 20.19,12.195 19.5,12.09 L19.5,12 L19.5,9.99895656 C19.5,9.44724809 19.0573397,9 18.5010434,9 L17.4989566,9 C16.9472481,9 16.5,9.44266033 16.5,9.99895656 L16.5,12 L16.5,12.09 C15.81,12.195 15.195,12.36 14.67,12.6 L12.987679,10.917679 C12.5996001,10.5296001 11.9615625,10.5384375 11.5841924,10.9158076 L10.9158076,11.5841924 C10.5287622,11.9712378 10.5267971,12.5967971 10.917679,12.987679 L12.6,14.67 C12.36,15.195 12.195,15.81 12.09,16.5 L9.99470418,16.5 C9.44534423,16.5 9,16.9426603 9,17.4989566 L9,18.5010434 C9,19.0527519 9.45594014,19.5 9.99470418,19.5 L12.09,19.5 C12.195,20.19 12.36,20.805 12.6,21.33 Z M14.25,19.40625 L14.25,16.59375 L16.59375,14.25 L19.40625,14.25 L21.75,16.59375 L21.75,19.40625 L19.40625,21.75 L16.59375,21.75 L14.25,19.40625 L14.25,19.40625 Z" id="Shape" fill="#FFFFFF"></path>
            </g>
        </g>
    </g>
</svg>