<?xml version="1.0" encoding="UTF-8"?>
<svg width="18px" height="18px" viewBox="0 0 18 18" version="1.1" xmlns="http://www.w3.org/2000/svg" xmlns:xlink="http://www.w3.org/1999/xlink">
    <!-- Generator: Sketch 40 (33762) - http://www.bohemiancoding.com/sketch -->
    <title>Shape</title>
    <desc>Created with Sketch.</desc>
    <defs></defs>
    <g id="Home-View" stroke="none" stroke-width="1" fill="none" fill-rule="evenodd">
        <g id="File-tab" transform="translate(-1392.000000, -90.000000)" fill="#4EA6E5">
            <path d="M1395.6,102.33 L1393.91768,104.012321 C1393.5296,104.4004 1393.53844,105.038438 1393.91581,105.415808 L1394.58419,106.084192 C1394.97124,106.471238 1395.5968,106.473203 1395.98768,106.082321 L1397.67,104.4 C1398.195,104.64 1398.81,104.805 1399.5,104.895 L1399.5,105 L1399.5,107.001043 C1399.5,107.552752 1399.9438,108 1400.50249,108 L1401.33333,108 L1401.49555,108 C1402.05029,108 1402.5,107.55734 1402.5,107.001043 L1402.5,105 L1402.5,104.895 C1403.19,104.805 1403.805,104.64 1404.33,104.4 L1406.01232,106.082321 C1406.4004,106.4704 1407.03844,106.461562 1407.41581,106.084192 L1408.08419,105.415808 C1408.47124,105.028762 1408.47124,104.403203 1408.0779,104.012321 L1406.385,102.33 C1406.64,101.805 1406.805,101.19 1406.895,100.5 L1408.5,100.5 L1409.00783,100.5 C1409.55579,100.5 1410,100.05734 1410,99.5010434 L1410,98.4989566 C1410,97.9472481 1409.55806,97.5 1409.00783,97.5 L1408.5,97.5 L1406.895,97.5 C1406.805,96.81 1406.64,96.195 1406.385,95.67 L1408.0779,93.987679 C1408.46842,93.5996001 1408.46156,92.9615625 1408.08419,92.5841924 L1407.41581,91.9158076 C1407.02876,91.5287622 1406.4032,91.5267971 1406.01232,91.917679 L1404.33,93.6 C1403.805,93.36 1403.19,93.195 1402.5,93.09 L1402.5,93 L1402.5,90.9989566 C1402.5,90.4472481 1402.05734,90 1401.50104,90 L1400.49896,90 C1399.94725,90 1399.5,90.4426603 1399.5,90.9989566 L1399.5,93 L1399.5,93.09 C1398.81,93.195 1398.195,93.36 1397.67,93.6 L1395.98768,91.917679 C1395.5996,91.5296001 1394.96156,91.5384375 1394.58419,91.9158076 L1393.91581,92.5841924 C1393.52876,92.9712378 1393.5268,93.5967971 1393.91768,93.987679 L1395.6,95.67 C1395.36,96.195 1395.195,96.81 1395.09,97.5 L1392.9947,97.5 C1392.44534,97.5 1392,97.9426603 1392,98.4989566 L1392,99.5010434 C1392,100.052752 1392.45594,100.5 1392.9947,100.5 L1395.09,100.5 C1395.195,101.19 1395.36,101.805 1395.6,102.33 Z M1397.25,100.40625 L1397.25,97.59375 L1399.59375,95.25 L1402.40625,95.25 L1404.75,97.59375 L1404.75,100.40625 L1402.40625,102.75 L1399.59375,102.75 L1397.25,100.40625 L1397.25,100.40625 Z" id="Shape"></path>
        </g>
    </g>
</svg>