<?xml version="1.0" encoding="UTF-8"?>
<svg width="16px" height="19px" viewBox="0 0 16 19" version="1.1" xmlns="http://www.w3.org/2000/svg" xmlns:xlink="http://www.w3.org/1999/xlink">
    <!-- Generator: Sketch 40 (33762) - http://www.bohemiancoding.com/sketch -->
    <title>Group 17</title>
    <desc>Created with Sketch.</desc>
    <defs>
        <path d="M0,9.92955088 C0,8.27500348 1.34178598,6.93372781 3.00118361,6.93372781 L11.3988164,6.93372781 C13.0563243,6.93372781 14.4,8.27797056 14.4,9.92955088 L14.4,11.8621651 C14.4,13.5167125 13.2139081,15.5050822 11.7121601,16.1707307 C11.7121601,16.1707307 10.7680597,17.1374113 7.2,17.1374113 C3.6319403,17.1374113 2.68783986,16.1707307 2.68783986,16.1707307 C1.2033869,15.445723 0,13.5137454 0,11.8621651 L0,9.92955088 Z" id="path-1"></path>
        <mask id="mask-2" maskContentUnits="userSpaceOnUse" maskUnits="objectBoundingBox" x="0" y="0" width="14.4" height="10.2036835" fill="white">
            <use xlink:href="#path-1"></use>
        </mask>
    </defs>
    <g id="Home-View" stroke="none" stroke-width="1" fill="none" fill-rule="evenodd">
        <g id="File-tab" transform="translate(-1257.000000, -89.000000)" stroke="#4EA6E5">
            <g id="Group-17" transform="translate(1257.800000, 90.000000)">
                <g id="Group-8-Copy" transform="translate(3.600000, 0.000000)" stroke-width="2">
                    <ellipse id="Oval-3-Copy" cx="3.6" cy="3.63195266" rx="3.6" ry="3.63195266"></ellipse>
                </g>
                <use id="Rectangle-5" mask="url(#mask-2)" stroke-width="4" transform="translate(7.200000, 12.035570) scale(1, -1) translate(-7.200000, -12.035570) " xlink:href="#path-1"></use>
            </g>
        </g>
    </g>
</svg>