<?xml version="1.0" encoding="UTF-8"?>
<svg width="18px" height="20px" viewBox="0 0 18 20" version="1.1" xmlns="http://www.w3.org/2000/svg" xmlns:xlink="http://www.w3.org/1999/xlink">
    <!-- Generator: Sketch 40 (33762) - http://www.bohemiancoding.com/sketch -->
    <title>Fill 155</title>
    <desc>Created with Sketch.</desc>
    <defs></defs>
    <g id="Home-View" stroke="none" stroke-width="1" fill="none" fill-rule="evenodd">
        <g id="Home-View-(Oct-12)" transform="translate(-1351.000000, -979.000000)" fill="#D8D8D8">
            <path d="M1364,979 L1364,981 L1356,981 L1356,979 L1354,979 L1354,981 L1353,981 C1351.89,981 1351.01,981.9 1351.01,983 L1351,997 C1351,998.1 1351.89,999 1353,999 L1367,999 C1368.1,999 1369,998.1 1369,997 L1369,983 C1369,981.9 1368.1,981 1367,981 L1366,981 L1366,979 L1364,979 L1364,979 Z M1361.06467,994.996667 L1359.59867,994.996667 L1359.59867,992.064667 L1356.66667,992.064667 L1356.66667,990.598667 L1359.59867,990.598667 L1359.59867,987.666667 L1361.06467,987.666667 L1361.06467,990.598667 L1363.99667,990.598667 L1363.99667,992.064667 L1361.06467,992.064667 L1361.06467,994.996667 Z M1353,986 L1367,986 L1367,997 L1353,997 L1353,986 Z" id="Fill-155"></path>
        </g>
    </g>
</svg>