<?xml version="1.0" encoding="UTF-8"?>
<svg width="27px" height="19px" viewBox="0 0 27 19" version="1.1" xmlns="http://www.w3.org/2000/svg" xmlns:xlink="http://www.w3.org/1999/xlink">
    <!-- Generator: Sketch 40 (33762) - http://www.bohemiancoding.com/sketch -->
    <title>Fill 304</title>
    <desc>Created with Sketch.</desc>
    <defs></defs>
    <g id="Home-View" stroke="none" stroke-width="1" fill="none" fill-rule="evenodd">
        <g id="Home-View-(Oct-12)" transform="translate(-1389.000000, -980.000000)" fill="#D8D8D8">
            <path d="M1413.3,980 L1391.7,980 C1390.215,980 1389.0135,981.215 1389.0135,982.7 L1389,996.2 C1389,997.685 1390.215,998.9 1391.7,998.9 L1413.3,998.9 C1414.785,998.9 1416,997.685 1416,996.2 L1416,982.7 C1416,981.215 1414.785,980 1413.3,980 L1413.3,980 Z M1401.15,984.05 L1403.85,984.05 L1403.85,986.75 L1401.15,986.75 L1401.15,984.05 Z M1401.15,988.1 L1403.85,988.1 L1403.85,990.8 L1401.15,990.8 L1401.15,988.1 Z M1397.1,984.05 L1399.8,984.05 L1399.8,986.75 L1397.1,986.75 L1397.1,984.05 Z M1397.1,988.1 L1399.8,988.1 L1399.8,990.8 L1397.1,990.8 L1397.1,988.1 Z M1393.05,988.1 L1395.75,988.1 L1395.75,990.8 L1393.05,990.8 L1393.05,988.1 Z M1393.05,984.05 L1395.75,984.05 L1395.75,986.75 L1393.05,986.75 L1393.05,984.05 Z M1397.1,993.5 L1407.9,993.5 L1407.9,996.2 L1397.1,996.2 L1397.1,993.5 Z M1405.2,988.1 L1407.9,988.1 L1407.9,990.8 L1405.2,990.8 L1405.2,988.1 Z M1405.2,984.05 L1407.9,984.05 L1407.9,986.75 L1405.2,986.75 L1405.2,984.05 Z M1409.25,988.1 L1411.95,988.1 L1411.95,990.8 L1409.25,990.8 L1409.25,988.1 Z M1409.25,984.05 L1411.95,984.05 L1411.95,986.75 L1409.25,986.75 L1409.25,984.05 Z" id="Fill-304"></path>
        </g>
    </g>
</svg>