<?xml version="1.0" encoding="UTF-8"?>
<svg width="92px" height="92px" viewBox="0 0 92 92" version="1.1" xmlns="http://www.w3.org/2000/svg" xmlns:xlink="http://www.w3.org/1999/xlink">
    <!-- Generator: Sketch 42 (36781) - http://www.bohemiancoding.com/sketch -->
    <title>Group 17</title>
    <desc>Created with Sketch.</desc>
    <defs></defs>
    <g id="Page-1" stroke="none" stroke-width="1" fill="none" fill-rule="evenodd">
        <g id="Langing-Page-(Dekstop)" transform="translate(-674.000000, -1257.000000)">
            <g id="Group-9" transform="translate(80.000000, 1257.000000)">
                <g id="Group-7" transform="translate(443.000000, 0.000000)">
                    <g id="Group-17" transform="translate(151.000000, 0.000000)">
                        <g id="Group-5" stroke="#263238">
                            <circle id="Oval" cx="46" cy="46" r="45.4545455"></circle>
                        </g>
                        <g id="Free-58-27-web-seo-internet-users-share" transform="translate(20.000000, 28.000000)">
                            <rect id="Layer-1" stroke="#263238" stroke-linecap="round" stroke-linejoin="round" fill="#D2E7FF" x="0" y="0" width="52" height="36.4"></rect>
                            <g id="Group-12" transform="translate(34.000000, 10.000000)" fill="#263238">
                                <polygon id="Path" points="3.75 16 6.25 16 6.25 13.3333333 3.75 13.3333333"></polygon>
                                <path d="M5,0 C2.2375,0 0,2.38666667 0,5.33333333 L2.5,5.33333333 C2.5,3.86666667 3.625,2.66666667 5,2.66666667 C6.375,2.66666667 7.5,3.86666667 7.5,5.33333333 C7.5,8 3.75,7.66666667 3.75,12 L6.25,12 C6.25,9 10,8.66666667 10,5.33333333 C10,2.38666667 7.7625,0 5,0 L5,0 Z" id="Path"></path>
                            </g>
                            <path d="M11.0639631,14.3862889 C10.8724333,14.5082377 10.5116178,15.273672 10.6748543,15.9452552 C10.9176178,16.9440268 11.7811215,17.333835 11.7811215,17.333835 C11.7811215,17.333835 13.1320265,19.1781635 13.1320265,20.250742 C13.1320265,21.3233205 13.1320265,21.7400212 12.7700046,22.6348283 C12.4079828,23.5296354 5.30168723,24.6022687 5,29.8774244 L15.34322,29.8774244 L25.8,29.8785763 C25.4983128,24.6034206 18.3920172,23.5307873 18.0299954,22.6359802 C17.6679735,21.7411731 17.6679735,21.3244724 17.6679735,20.2518939 C17.6679735,19.1793154 19.0188785,17.3349869 19.0188785,17.3349869 C19.0188785,17.3349869 19.8823822,16.9451787 20.1251457,15.9464071 C20.2883822,15.2748239 19.9275667,14.5093896 19.7360369,14.3874408 C20.247999,12.7721884 21.2704973,7.20364496 15.45678,7.00294402 C15.4309373,6.99914965 15.4052279,6.99982697 15.3796499,7.00060755 C9.5295027,7.20249305 10.552001,12.7710365 11.0639631,14.3862889 Z" id="Layer-5" stroke="#263238" stroke-linecap="round" stroke-linejoin="round" fill="#76B6FF"></path>
                        </g>
                    </g>
                </g>
            </g>
        </g>
    </g>
</svg>