<?xml version="1.0" encoding="UTF-8"?>
<svg width="65px" height="65px" viewBox="0 0 65 65" version="1.1" xmlns="http://www.w3.org/2000/svg" xmlns:xlink="http://www.w3.org/1999/xlink">
    <!-- Generator: Sketch 42 (36781) - http://www.bohemiancoding.com/sketch -->
    <title>Group 15</title>
    <desc>Created with Sketch.</desc>
    <defs>
        <rect id="path-1" x="12" y="6" width="1" height="5.41125541"></rect>
        <mask id="mask-2" maskContentUnits="userSpaceOnUse" maskUnits="objectBoundingBox" x="0" y="0" width="1" height="5.41125541" fill="white">
            <use xlink:href="#path-1"></use>
        </mask>
        <rect id="path-3" x="1.81260902e-15" y="12" width="24.217988" height="16.2234254" rx="2"></rect>
        <mask id="mask-4" maskContentUnits="userSpaceOnUse" maskUnits="objectBoundingBox" x="-1" y="-1" width="26.217988" height="18.2234254">
            <rect x="-1" y="11" width="26.217988" height="18.2234254" fill="white"></rect>
            <use xlink:href="#path-3" fill="black"></use>
        </mask>
    </defs>
    <g id="Page-1" stroke="none" stroke-width="1" fill="none" fill-rule="evenodd">
        <g id="Langing-Page-(Dekstop)" transform="translate(-688.000000, -3474.000000)">
            <g id="Group-15" transform="translate(688.000000, 3474.000000)">
                <g id="Gears" fill="#FFFFFF">
                    <path d="M32.5,65 C50.4492544,65 65,50.4492544 65,32.5 C65,14.5507456 50.4492544,0 32.5,0 C14.5507456,0 0,14.5507456 0,32.5 C0,50.4492544 14.5507456,65 32.5,65 Z" id="Oval-9"></path>
                </g>
                <g id="Group-27" transform="translate(20.000000, 18.000000)">
                    <g id="Group-26">
                        <use id="Rectangle-4" stroke="#4EA6E5" mask="url(#mask-2)" fill="#4EA6E5" xlink:href="#path-1"></use>
                        <use id="Rectangle-3" stroke="#4EA6E5" mask="url(#mask-4)" stroke-width="2" xlink:href="#path-3"></use>
                        <ellipse id="Oval-7" stroke="#4EA6E5" stroke-width="2" fill="#4EA6E5" cx="18.598055" cy="20.8188469" rx="1.69101732" ry="1.69493866"></ellipse>
                        <ellipse id="Oval-7" stroke="#4EA6E5" stroke-width="2" fill="#4EA6E5" cx="5.68389007" cy="20.8188469" rx="1.69101732" ry="1.69493866"></ellipse>
                        <ellipse id="Oval-7" stroke="#6ED69A" stroke-width="2" fill="#6ED69A" cx="12.3720249" cy="3.38987732" rx="3.38203463" ry="3.38987732"></ellipse>
                    </g>
                </g>
            </g>
        </g>
    </g>
</svg>