<?xml version="1.0" encoding="UTF-8"?>
<svg width="65px" height="65px" viewBox="0 0 65 65" version="1.1" xmlns="http://www.w3.org/2000/svg" xmlns:xlink="http://www.w3.org/1999/xlink">
    <!-- Generator: Sketch 42 (36781) - http://www.bohemiancoding.com/sketch -->
    <title>Group 13</title>
    <desc>Created with Sketch.</desc>
    <defs>
        <path d="M4.04069851,13.8114631 C3.91307331,13.8923714 3.67264535,14.4002077 3.78141732,14.8457773 C3.94318189,15.5084239 4.51857425,15.7670466 4.51857425,15.7670466 C4.51857425,15.7670466 5.41874459,16.9906876 5.41874459,17.7023022 C5.41874459,18.4139168 5.41874459,18.6903817 5.17751271,19.2840518 C4.93628082,19.8777219 0.201028128,20.5893728 0,24.0892358 L6.89216487,24.0892358 L13.86,24.09 C13.6589719,20.5901371 8.92371918,19.8784861 8.68248729,19.284816 C8.44125541,18.6911459 8.44125541,18.414681 8.44125541,17.7030665 C8.44125541,16.9914519 9.34142575,15.7678108 9.34142575,15.7678108 C9.34142575,15.7678108 9.91681811,15.5091881 10.0785827,14.8465416 C10.1873546,14.4009719 9.94692669,13.8931357 9.81930149,13.8122274 C10.1604455,12.7405695 10.8417833,9.04605514 6.96783513,8.91289778 C6.95061492,8.91038037 6.93348362,8.91082974 6.91643982,8.91134762 C3.0182167,9.04529089 3.69955453,12.7398053 4.04069851,13.8114631 Z" id="path-1"></path>
        <mask id="mask-2" maskContentUnits="userSpaceOnUse" maskUnits="objectBoundingBox" x="-0.5" y="-0.5" width="14.86" height="16.1790555">
            <rect x="-0.5" y="8.41094454" width="14.86" height="16.1790555" fill="white"></rect>
            <use xlink:href="#path-1" fill="black"></use>
        </mask>
        <path d="M27.1806985,13.8114631 C27.0530733,13.8923714 26.8126454,14.4002077 26.9214173,14.8457773 C27.0831819,15.5084239 27.6585743,15.7670466 27.6585743,15.7670466 C27.6585743,15.7670466 28.5587446,16.9906876 28.5587446,17.7023022 C28.5587446,18.4139168 28.5587446,18.6903817 28.3175127,19.2840518 C28.0762808,19.8777219 23.3410281,20.5893728 23.14,24.0892358 L30.0321649,24.0892358 L37,24.09 C36.7989719,20.5901371 32.0637192,19.8784861 31.8224873,19.284816 C31.5812554,18.6911459 31.5812554,18.414681 31.5812554,17.7030665 C31.5812554,16.9914519 32.4814257,15.7678108 32.4814257,15.7678108 C32.4814257,15.7678108 33.0568181,15.5091881 33.2185827,14.8465416 C33.3273546,14.4009719 33.0869267,13.8931357 32.9593015,13.8122274 C33.3004455,12.7405695 33.9817833,9.04605514 30.1078351,8.91289778 C30.0906149,8.91038037 30.0734836,8.91082974 30.0564398,8.91134762 C26.1582167,9.04529089 26.8395545,12.7398053 27.1806985,13.8114631 Z" id="path-3"></path>
        <mask id="mask-4" maskContentUnits="userSpaceOnUse" maskUnits="objectBoundingBox" x="-0.5" y="-0.5" width="14.86" height="16.1790555">
            <rect x="22.64" y="8.41094454" width="14.86" height="16.1790555" fill="white"></rect>
            <use xlink:href="#path-3" fill="black"></use>
        </mask>
    </defs>
    <g id="Page-1" stroke="none" stroke-width="1" fill="none" fill-rule="evenodd">
        <g id="Langing-Page-(Dekstop)" transform="translate(-688.000000, -1751.000000)">
            <g id="Group-13" transform="translate(688.000000, 1751.000000)">
                <circle id="Oval-9" fill="#FFFFFF" cx="32.5" cy="32.5" r="32.5"></circle>
                <g id="Free-59-38-web-seo-internet-landing-page-startup-launch" transform="translate(14.000000, 16.000000)">
                    <g id="Layer-2">
                        <use fill="#76B6FF" fill-rule="evenodd" xlink:href="#path-1"></use>
                        <use stroke="#263238" mask="url(#mask-2)" stroke-width="1" stroke-linecap="round" stroke-linejoin="round" xlink:href="#path-1"></use>
                    </g>
                    <g id="Layer-4">
                        <use fill="#FFA3E5" fill-rule="evenodd" xlink:href="#path-3"></use>
                        <use stroke="#263238" mask="url(#mask-4)" stroke-width="1" stroke-linecap="round" stroke-linejoin="round" xlink:href="#path-3"></use>
                    </g>
                    <path id="Layer-5" stroke="#263238" stroke-width="3.5" stroke-linecap="round" stroke-linejoin="round" fill="#E2F3FB"></path>
                    <path d="M8.93,4.62 C8.93,4.62 11.6103663,6.41153797e-17 18.5,0 C25.3896337,-6.41153797e-17 27.905,4.62 27.905,4.62" id="Layer-6" stroke="#263238" stroke-linecap="round" stroke-linejoin="round"></path>
                    <polyline id="Layer-7" stroke="#263238" stroke-linecap="round" stroke-linejoin="round" points="25.2273929 2.82744643 27.3275 4.92755357 29.4276071 2.82744643"></polyline>
                    <path d="M28.07,28.38 C28.07,28.38 25.3896337,33 18.5,33 C11.6103663,33 9.095,28.38 9.095,28.38" id="Layer-8" stroke="#263238" stroke-linecap="round" stroke-linejoin="round"></path>
                    <polyline id="Layer-9" stroke="#263238" stroke-linecap="round" stroke-linejoin="round" points="11.9 28.38 8.93 28.38 8.93 31.35"></polyline>
                </g>
            </g>
        </g>
    </g>
</svg>