<?xml version="1.0" encoding="UTF-8"?>
<svg width="92px" height="92px" viewBox="0 0 92 92" version="1.1" xmlns="http://www.w3.org/2000/svg" xmlns:xlink="http://www.w3.org/1999/xlink">
    <!-- Generator: Sketch 42 (36781) - http://www.bohemiancoding.com/sketch -->
    <title>Group 5</title>
    <desc>Created with Sketch.</desc>
    <defs>
        <path d="M24.3147584,49.9907904 C10.8244435,49.6277593 0,38.5779718 0,25 C0,11.1928813 11.1928813,0 25,0 C38.8071187,0 50,11.1928813 50,25 C50,33.5132811 45.7447045,41.0326847 39.2450593,45.547265 L27.0904403,57.5701381 C25.9088083,58.7389622 24.8630351,58.3472132 24.7545976,56.6944907 L24.3147584,49.9907904 Z" id="path-1"></path>
        <mask id="mask-2" maskContentUnits="userSpaceOnUse" maskUnits="objectBoundingBox" x="0" y="0" width="50" height="58.2433489" fill="white">
            <use xlink:href="#path-1"></use>
        </mask>
    </defs>
    <g id="Page-1" stroke="none" stroke-width="1" fill="none" fill-rule="evenodd">
        <g id="Langing-Page-(Dekstop)" transform="translate(-231.000000, -1257.000000)" stroke="#263238">
            <g id="Group-9" transform="translate(80.000000, 1257.000000)">
                <g id="Group-6">
                    <g id="Group-5" transform="translate(151.000000, 0.000000)">
                        <circle id="Oval" fill="#FFFFFF" cx="46" cy="46" r="45.4545455"></circle>
                        <g id="Group-16" transform="translate(21.000000, 20.000000)">
                            <g id="Group" stroke-width="2" fill="#FFD4D4">
                                <use id="Combined-Shape" mask="url(#mask-2)" xlink:href="#path-1"></use>
                            </g>
                            <path d="M24.5,37 L22.75,35.25 C16.25,29.5 12,25.625 12,20.875 C12,17 15,14 18.875,14 C21,14 23.125,15 24.5,16.625 C25.875,15 28,14 30.125,14 C34,14 37,17 37,20.875 C37,25.625 32.75,29.5 26.25,35.25 L24.5,37 L24.5,37 Z" id="Shape" fill="#FF7171"></path>
                        </g>
                    </g>
                </g>
            </g>
        </g>
    </g>
</svg>