<?xml version="1.0" encoding="UTF-8"?>
<svg width="92px" height="92px" viewBox="0 0 92 92" version="1.1" xmlns="http://www.w3.org/2000/svg" xmlns:xlink="http://www.w3.org/1999/xlink">
    <!-- Generator: Sketch 42 (36781) - http://www.bohemiancoding.com/sketch -->
    <title>Group 5</title>
    <desc>Created with Sketch.</desc>
    <defs></defs>
    <g id="Page-1" stroke="none" stroke-width="1" fill="none" fill-rule="evenodd">
        <g id="Langing-Page-(Dekstop)" transform="translate(-1117.000000, -1257.000000)" stroke="#263238">
            <g id="Group-9" transform="translate(80.000000, 1257.000000)">
                <g id="Group-8" transform="translate(886.000000, 0.000000)">
                    <g id="Group-5" transform="translate(151.000000, 0.000000)">
                        <circle id="Oval" cx="46" cy="46" r="45.4545455"></circle>
                        <path d="M57.25,38.1644737 L57.25,33.5460526 C57.25,27.1726316 52.21,22 46,22 C39.79,22 34.75,27.1726316 34.75,33.5460526 L34.75,38.1644737 L32.5,38.1644737 C30.025,38.1644737 28,40.2427632 28,42.7828947 L28,65.875 C28,68.4151316 30.025,70.4934211 32.5,70.4934211 L59.5,70.4934211 C61.975,70.4934211 64,68.4151316 64,65.875 L64,42.7828947 C64,40.2427632 61.975,38.1644737 59.5,38.1644737 L57.25,38.1644737 Z M46,58.9473684 C43.525,58.9473684 41.5,56.8690789 41.5,54.3289474 C41.5,51.7888158 43.525,49.7105263 46,49.7105263 C48.475,49.7105263 50.5,51.7888158 50.5,54.3289474 C50.5,56.8690789 48.475,58.9473684 46,58.9473684 L46,58.9473684 Z M52.975,38.1644737 L39.025,38.1644737 L39.025,33.5460526 C39.025,29.5973026 42.1525,26.3875 46,26.3875 C49.8475,26.3875 52.975,29.5973026 52.975,33.5460526 L52.975,38.1644737 L52.975,38.1644737 Z" id="Fill-134" fill="#3DBDB6"></path>
                    </g>
                </g>
            </g>
        </g>
    </g>
</svg>