<?xml version="1.0" encoding="UTF-8"?>
<svg width="94px" height="94px" viewBox="0 0 94 94" version="1.1" xmlns="http://www.w3.org/2000/svg" xmlns:xlink="http://www.w3.org/1999/xlink">
    <!-- Generator: sketchtool 42 (36781) - http://www.bohemiancoding.com/sketch -->
    <title>7BDF01B3-0981-4FA7-A5F3-C1376FBEE7C6</title>
    <desc>Created with sketchtool.</desc>
    <defs></defs>
    <g id="Page-1" stroke="none" stroke-width="1" fill="none" fill-rule="evenodd">
        <g id="Langing-Page-(Dekstop)" transform="translate(-1118.000000, -1256.000000)">
            <g id="Group-9" transform="translate(80.000000, 1257.000000)">
                <g id="Group-8" transform="translate(886.000000, 0.000000)">
                    <g id="Group-5" transform="translate(153.000000, 0.000000)">
                        <circle id="Oval" stroke="#263238" cx="45.954046" cy="45.954046" r="45.954046"></circle>
                        <g id="139---Time-Passing-(Retro)" transform="translate(18.197802, 18.197802)">
                            <path d="M27.8021978,47.9348238 C16.7014513,47.9348238 7.66957181,38.9029443 7.66957181,27.8021978 C7.66957181,16.7014513 16.7014513,7.66957181 27.8021978,7.66957181 C38.9029443,7.66957181 47.9348238,16.7014513 47.9348238,27.8021978 C47.9348238,38.9029443 38.9029443,47.9348238 27.8021978,47.9348238" id="Fill-325" fill="#3DBDB6"></path>
                            <path d="M27.2967033,10.5456612 L27.2967033,12.4630542" id="Stroke-326" stroke="#FFFFFF" stroke-linecap="round"></path>
                            <path d="M27.2967033,43.1413414 L27.2967033,45.0587344" id="Stroke-327" stroke="#FFFFFF" stroke-linecap="round"></path>
                            <path d="M45.0587344,27.2967033 L43.1413414,27.2967033" id="Stroke-328" stroke="#FFFFFF" stroke-linecap="round"></path>
                            <path d="M12.4630542,27.2967033 L10.5456612,27.2967033" id="Stroke-329" stroke="#FFFFFF" stroke-linecap="round"></path>
                            <path d="M30.6782872,26.8435013 C30.6782872,28.4320614 29.3907579,29.7195908 27.8021978,29.7195908 C26.2136377,29.7195908 24.9261084,28.4320614 24.9261084,26.8435013 C24.9261084,25.2549413 26.2136377,23.9674119 27.8021978,23.9674119 C29.3907579,23.9674119 30.6782872,25.2549413 30.6782872,26.8435013 L30.6782872,26.8435013 Z" id="Stroke-330" stroke="#FFFFFF" stroke-linecap="round"></path>
                            <path d="M27.2967033,23.9674119 L27.2967033,18.215233" id="Stroke-331" stroke="#FFFFFF" stroke-linecap="round"></path>
                            <path d="M25.7688984,28.8768966 L17.2566324,37.3891626" id="Stroke-332" stroke="#FFFFFF" stroke-linecap="round"></path>
                            <path d="M46.9761273,7.6875953 C41.9841948,2.9267086 35.2282607,-0.000191739295 27.8021978,-0.000191739295 C12.4716825,-0.000191739295 0,12.4724494 0,27.8020061" id="Stroke-3007" stroke="#263238" stroke-linecap="round"></path>
                            <path d="M27.8021978,47.9348238 C16.7014513,47.9348238 7.66957181,38.9029443 7.66957181,27.8021978 C7.66957181,16.7014513 16.7014513,7.66957181 27.8021978,7.66957181 C38.9029443,7.66957181 47.9348238,16.7014513 47.9348238,27.8021978 C47.9348238,38.9029443 38.9029443,47.9348238 27.8021978,47.9348238 L27.8021978,47.9348238 Z" id="Stroke-3008" stroke="#263238"></path>
                            <polyline id="Stroke-3009" stroke="#263238" stroke-linecap="round" points="39.3065555 7.66957181 46.9761273 7.66957181 46.9761273 0"></polyline>
                            <path d="M0,27.8021978 C0,43.1317545 12.4726412,55.6043956 27.8021978,55.6043956 C43.1317545,55.6043956 55.6043956,43.1317545 55.6043956,27.8021978" id="Stroke-3010" stroke="#263238" stroke-linecap="round" stroke-dasharray="0,3"></path>
                        </g>
                    </g>
                </g>
            </g>
        </g>
    </g>
</svg>